<svg id="Layer_2" data-name="Layer 2" xmlns="http://www.w3.org/2000/svg" viewBox="0 0 555.57 555"><defs><style>.cls-1{fill:#2a327c;}.cls-2,.cls-4{fill:#fff;}.cls-2{opacity:0.28;}.cls-3{fill:#4fbd90;}</style></defs><title>VectorExport</title><path id="Blue" class="cls-1" d="M464.86,0H435.3V351.15a90.71,90.71,0,0,1-90.71,90.71H189.17L114.33,534.6V441.86H.57v22.43A90.7,90.7,0,0,0,91.27,555H464.86a90.71,90.71,0,0,0,90.71-90.71V90.71A90.71,90.71,0,0,0,464.86,0Z"/><path id="White" class="cls-2" d="M378.34,0V290.42a99.22,99.22,0,0,1-99.22,99.22H.57v52.22H114.33V534.6l74.84-92.74H344.59a90.71,90.71,0,0,0,90.71-90.71V0Z"/><path id="Green" class="cls-3" d="M90.71,0H378.34a0,0,0,0,1,0,0V290.42a99.21,99.21,0,0,1-99.21,99.21H0a0,0,0,0,1,0,0V90.71A90.71,90.71,0,0,1,90.71,0Z"/><path id="N" class="cls-4" d="M94.42,275.15a25.51,25.51,0,0,0,25.51,25.51h.67a25.51,25.51,0,0,0,25.51-25.51V174.06l77,60.24v40.85a25.51,25.51,0,0,0,25.51,25.51h.67a25.51,25.51,0,0,0,25.51-25.51V118.88A25.51,25.51,0,0,0,249.3,93.37h-.67a25.51,25.51,0,0,0-25.51,25.51v48.19c-7.8-6.1-65.35-51.06-84.24-65.46C118.59,86.15,94.42,94,94.42,112.44Z"/></svg>